<?xml version="1.0" standalone="no"?>
<!DOCTYPE svg PUBLIC "-//W3C//DTD SVG 20010904//EN"
 "http://www.w3.org/TR/2001/REC-SVG-20010904/DTD/svg10.dtd">
<svg version="1.0" xmlns="http://www.w3.org/2000/svg"
 width="700.000000pt" height="700.000000pt" viewBox="0 0 700.000000 700.000000"
 preserveAspectRatio="xMidYMid meet">
<metadata>
Created by potrace 1.14, written by Peter Selinger 2001-2017
</metadata>
<g transform="translate(0.000000,700.000000) scale(0.100000,-0.100000)"
fill="#000000" stroke="none">
<path d="M3470 6981 c-14 -10 -43 -29 -65 -40 -44 -24 -73 -42 -89 -54 -11 -8
-767 -466 -821 -497 -16 -9 -158 -95 -315 -190 -157 -95 -297 -180 -312 -189
-15 -9 -191 -115 -390 -236 -199 -121 -370 -224 -380 -230 -35 -20 -414 -249
-464 -281 l-52 -33 0 -483 0 -484 538 -322 538 -322 0 -583 c1 -698 0 -657 10
-657 5 0 65 -32 133 -71 68 -39 149 -85 179 -102 30 -16 136 -76 235 -132 99
-56 200 -113 225 -127 25 -14 77 -43 115 -65 39 -22 90 -51 115 -65 25 -14 77
-43 115 -65 39 -22 90 -51 115 -65 25 -14 144 -81 265 -150 121 -69 229 -130
240 -135 20 -11 20 -9 20 998 0 883 -2 1010 -15 1022 -8 8 -60 40 -115 72
-102 59 -200 117 -615 360 -129 76 -251 147 -270 157 -64 36 -274 161 -310
183 -31 20 -94 57 -210 123 -19 11 -80 46 -135 79 -55 33 -107 62 -115 66 -8
4 -85 49 -170 100 l-155 92 0 79 0 78 145 85 c80 47 237 139 350 205 113 66
212 124 220 128 8 5 52 32 98 60 46 27 85 50 86 50 2 0 77 43 167 96 90 53
184 108 209 122 25 14 56 33 70 42 14 9 30 19 35 21 6 2 66 37 135 78 69 40
177 104 240 141 63 37 192 113 287 169 94 55 177 101 183 101 7 0 35 -13 62
-30 26 -16 50 -30 53 -30 2 0 39 -21 82 -46 43 -25 101 -59 128 -74 28 -16
185 -106 350 -200 165 -95 316 -181 335 -192 19 -11 139 -80 265 -153 127 -73
417 -239 645 -370 228 -131 417 -240 420 -242 2 -2 5 -446 5 -986 l0 -982 210
-127 c182 -110 302 -182 445 -266 l35 -21 0 1420 0 1421 -37 22 c-20 11 -118
68 -219 126 -232 134 -227 131 -469 270 -113 65 -221 127 -240 139 -19 11 -48
28 -65 37 -16 9 -160 92 -320 184 -159 91 -459 264 -665 382 -206 119 -391
225 -410 237 -19 11 -41 24 -49 28 -8 3 -64 35 -125 71 -61 36 -125 73 -142
82 -17 10 -94 54 -171 99 -78 44 -147 83 -155 86 -7 2 -24 -4 -38 -14z"/>
<path d="M3545 5676 c-16 -11 -267 -154 -525 -298 -137 -77 -381 -215 -570
-323 -118 -67 -242 -137 -275 -155 -33 -19 -76 -43 -96 -54 -20 -12 -79 -44
-130 -73 -144 -80 -141 -75 -88 -105 58 -34 404 -230 449 -255 19 -11 159 -90
310 -175 151 -85 295 -166 320 -180 25 -14 77 -44 117 -67 95 -54 139 -79 193
-109 25 -14 107 -60 183 -103 75 -44 141 -79 146 -79 8 0 38 16 166 90 48 27
414 234 475 267 30 17 95 54 143 82 49 28 91 51 93 51 2 0 21 11 42 23 20 13
62 38 92 54 349 195 745 423 744 429 -1 5 -24 20 -50 35 -27 15 -166 93 -309
174 -143 81 -280 159 -305 173 -38 21 -178 100 -310 175 -19 11 -69 39 -110
62 -41 23 -178 100 -305 172 -126 71 -252 142 -280 157 -27 15 -54 32 -59 37
-14 13 -39 11 -61 -5z"/>
<path d="M5485 4382 c-5 -5 -136 -81 -290 -168 -154 -87 -359 -202 -455 -257
-96 -54 -197 -111 -225 -127 -27 -15 -68 -38 -90 -50 -22 -13 -60 -34 -85 -48
-25 -13 -49 -28 -55 -32 -5 -4 -39 -23 -75 -42 -36 -20 -123 -69 -195 -110
-71 -41 -157 -90 -190 -108 -33 -18 -67 -38 -76 -43 -15 -10 -17 -95 -17
-1009 l0 -999 24 16 c13 8 37 23 54 33 41 23 327 199 370 227 115 75 545 335
553 335 8 0 446 -216 455 -224 1 -2 -59 -43 -135 -92 -76 -49 -194 -126 -263
-171 -613 -400 -1129 -733 -1135 -733 -4 0 -125 65 -269 144 -143 79 -292 160
-331 181 -38 21 -104 57 -145 80 -41 23 -104 58 -140 77 -36 20 -249 137 -475
260 -225 124 -432 237 -460 252 -27 15 -68 37 -90 50 -22 12 -76 42 -120 66
-44 24 -134 73 -200 110 -66 37 -127 69 -135 72 -13 4 -15 91 -16 698 0 750 4
691 -51 727 -62 42 -620 396 -629 400 -8 3 -11 -288 -12 -1097 l0 -1100 67
-39 c36 -21 93 -53 126 -71 33 -18 65 -36 70 -40 6 -4 33 -20 60 -35 28 -15
86 -48 130 -73 44 -24 105 -58 135 -75 30 -16 60 -33 65 -37 6 -4 30 -18 55
-32 48 -27 348 -196 415 -235 22 -12 47 -26 55 -30 8 -4 130 -72 270 -151 140
-80 289 -164 330 -187 41 -23 93 -52 115 -65 22 -12 110 -62 195 -110 85 -48
297 -167 470 -265 173 -98 335 -189 360 -203 25 -14 52 -30 61 -35 20 -12 -70
-64 1184 678 105 62 267 157 360 212 94 55 271 161 395 234 124 74 230 136
235 138 6 2 38 22 73 43 34 21 65 38 69 38 3 0 14 6 22 14 9 7 36 25 61 38 25
14 131 76 235 138 105 62 204 120 220 130 142 82 157 93 144 101 -8 5 -249
126 -536 270 l-523 262 -2 1039 c-2 692 -6 1036 -13 1030z"/>
</g>
</svg>
